<svg width="141" height="141" viewBox="0 0 141 141" fill="none" xmlns="http://www.w3.org/2000/svg">
<path d="M113.735 16.0785L77.4444 42.4449L138.251 86.6237C139.491 81.3734 140.117 75.9965 140.115 70.6016C140.115 48.5387 129.796 28.8426 113.735 16.0785ZM106.661 11.1336C96.1139 4.69579 83.7305 0.982605 70.4958 0.982605C56.2724 0.982605 43.034 5.2734 32.0002 12.6239L45.8685 55.3024L106.661 11.1336ZM25.1188 17.8461C10.2851 30.6231 0.877075 49.5335 0.877075 70.6014C0.877075 77.0751 1.76852 83.3438 3.42931 89.2948H48.3359L25.1188 17.8461ZM6.26627 97.4535C16.4374 121.692 39.943 139 67.5539 140.154L81.4279 97.4535H6.26627ZM76.1864 139.986C103.557 137.761 126.5 119.637 135.742 94.885L99.4159 68.4924L76.1864 139.986Z" fill="#D7FE62"/>
</svg>
