<svg width="712" height="151" viewBox="0 0 712 151" fill="none" xmlns="http://www.w3.org/2000/svg">
<path d="M113.735 26.0785L77.4444 52.4449L138.251 96.6237C139.491 91.3734 140.117 85.9965 140.115 80.6016C140.115 58.5387 129.796 38.8426 113.735 26.0785ZM106.661 21.1336C96.1139 14.6958 83.7305 10.9826 70.4958 10.9826C56.2724 10.9826 43.034 15.2734 32.0002 22.6239L45.8685 65.3024L106.661 21.1336ZM25.1188 27.8461C10.2851 40.6231 0.877075 59.5335 0.877075 80.6014C0.877075 87.0751 1.76852 93.3438 3.42931 99.2948H48.3359L25.1188 27.8461ZM6.26627 107.454C16.4374 131.692 39.943 149 67.5539 150.154L81.4279 107.454H6.26627ZM76.1864 149.986C103.557 147.761 126.5 129.637 135.742 104.885L99.4159 78.4924L76.1864 149.986Z" fill="#D7FE62"/>
<path d="M224.938 66.4822C224.938 70.2871 223.626 73.4579 221.002 75.9945C218.422 78.4874 214.464 79.7339 209.128 79.7339H200.337V98.8241H194.368V53.0993H209.128C214.289 53.0993 218.203 54.3458 220.871 56.8387C223.583 59.3316 224.938 62.5461 224.938 66.4822ZM209.128 74.8137C212.452 74.8137 214.901 74.0921 216.476 72.6488C218.05 71.2056 218.837 69.15 218.837 66.4822C218.837 60.8404 215.601 58.0195 209.128 58.0195H200.337V74.8137H209.128Z" fill="#F8F8F8"/>
<path d="M256.762 62.2181C259.474 62.2181 261.923 62.8085 264.11 63.9893C266.296 65.1264 268.002 66.854 269.227 69.1719C270.495 71.4899 271.129 74.3108 271.129 77.6346V98.8241H265.225V78.4874C265.225 74.9012 264.328 72.1677 262.535 70.2871C260.742 68.3628 258.293 67.4006 255.188 67.4006C252.039 67.4006 249.524 68.3847 247.643 70.3527C245.807 72.3208 244.888 75.1855 244.888 78.9467V98.8241H238.918V50.2784H244.888V67.9911C246.069 66.1542 247.687 64.7328 249.743 63.7269C251.842 62.721 254.182 62.2181 256.762 62.2181Z" fill="#F8F8F8"/>
<path d="M303.12 99.4146C299.752 99.4146 296.691 98.6492 293.936 97.1185C291.224 95.5878 289.081 93.4229 287.507 90.6239C285.976 87.7811 285.21 84.501 285.21 80.7835C285.21 77.1098 285.998 73.8734 287.572 71.0744C289.19 68.2316 291.377 66.0667 294.132 64.5797C296.888 63.049 299.971 62.2837 303.382 62.2837C306.794 62.2837 309.877 63.049 312.632 64.5797C315.388 66.0667 317.552 68.2097 319.127 71.0088C320.745 73.8078 321.554 77.0661 321.554 80.7835C321.554 84.501 320.723 87.7811 319.061 90.6239C317.443 93.4229 315.234 95.5878 312.435 97.1185C309.636 98.6492 306.531 99.4146 303.12 99.4146ZM303.12 94.1664C305.263 94.1664 307.275 93.6634 309.155 92.6575C311.036 91.6516 312.545 90.1428 313.682 88.131C314.863 86.1192 315.453 83.67 315.453 80.7835C315.453 77.897 314.885 75.4479 313.747 73.4361C312.61 71.4242 311.123 69.9373 309.287 68.9751C307.45 67.9692 305.46 67.4662 303.317 67.4662C301.13 67.4662 299.118 67.9692 297.281 68.9751C295.488 69.9373 294.045 71.4242 292.952 73.4361C291.858 75.4479 291.311 77.897 291.311 80.7835C291.311 83.7138 291.836 86.1848 292.886 88.1966C293.979 90.2084 295.423 91.7172 297.216 92.7231C299.009 93.6853 300.977 94.1664 303.12 94.1664Z" fill="#F8F8F8"/>
<path d="M343.245 67.7943V88.9838C343.245 90.7332 343.617 91.9796 344.361 92.7231C345.104 93.4229 346.394 93.7728 348.231 93.7728H352.627V98.8241H347.247C343.923 98.8241 341.43 98.0588 339.769 96.5281C338.107 94.9973 337.276 92.4826 337.276 88.9838V67.7943H332.618V62.8741H337.276V53.821H343.245V62.8741H352.627V67.7943H343.245Z" fill="#F8F8F8"/>
<path d="M382.099 99.4146C378.731 99.4146 375.67 98.6492 372.915 97.1185C370.203 95.5878 368.06 93.4229 366.486 90.6239C364.955 87.7811 364.189 84.501 364.189 80.7835C364.189 77.1098 364.977 73.8734 366.551 71.0744C368.169 68.2316 370.356 66.0667 373.111 64.5797C375.867 63.049 378.95 62.2837 382.361 62.2837C385.773 62.2837 388.856 63.049 391.611 64.5797C394.367 66.0667 396.531 68.2097 398.106 71.0088C399.724 73.8078 400.533 77.0661 400.533 80.7835C400.533 84.501 399.702 87.7811 398.04 90.6239C396.422 93.4229 394.213 95.5878 391.414 97.1185C388.615 98.6492 385.51 99.4146 382.099 99.4146ZM382.099 94.1664C384.242 94.1664 386.254 93.6634 388.134 92.6575C390.015 91.6516 391.524 90.1428 392.661 88.131C393.842 86.1192 394.432 83.67 394.432 80.7835C394.432 77.897 393.864 75.4479 392.726 73.4361C391.589 71.4242 390.102 69.9373 388.266 68.9751C386.429 67.9692 384.439 67.4662 382.296 67.4662C380.109 67.4662 378.097 67.9692 376.26 68.9751C374.467 69.9373 373.024 71.4242 371.931 73.4361C370.837 75.4479 370.29 77.897 370.29 80.7835C370.29 83.7138 370.815 86.1848 371.865 88.1966C372.958 90.2084 374.402 91.7172 376.195 92.7231C377.988 93.6853 379.956 94.1664 382.099 94.1664Z" fill="#F8F8F8"/>
<path d="M429.769 62.2837C432.874 62.2837 435.585 62.9616 437.903 64.3173C440.265 65.6731 442.014 67.3788 443.152 69.4343V62.8741H449.187V99.6114C449.187 102.891 448.487 105.8 447.088 108.336C445.688 110.917 443.676 112.929 441.052 114.372C438.472 115.815 435.454 116.537 431.999 116.537C427.276 116.537 423.34 115.422 420.191 113.191C417.042 110.961 415.183 107.921 414.615 104.072H420.519C421.175 106.259 422.531 108.008 424.586 109.321C426.642 110.676 429.113 111.354 431.999 111.354C435.279 111.354 437.947 110.326 440.003 108.271C442.102 106.215 443.152 103.329 443.152 99.6114V92.0671C441.971 94.1664 440.221 95.9158 437.903 97.3153C435.585 98.7148 432.874 99.4146 429.769 99.4146C426.576 99.4146 423.668 98.6273 421.044 97.0529C418.463 95.4784 416.43 93.2698 414.943 90.4271C413.456 87.5843 412.712 84.3479 412.712 80.7179C412.712 77.0442 413.456 73.8297 414.943 71.0744C416.43 68.2753 418.463 66.1105 421.044 64.5797C423.668 63.049 426.576 62.2837 429.769 62.2837ZM443.152 80.7835C443.152 78.072 442.605 75.7103 441.512 73.6985C440.418 71.6867 438.931 70.1559 437.051 69.1063C435.214 68.0129 433.18 67.4662 430.95 67.4662C428.719 67.4662 426.685 67.9911 424.849 69.0407C423.012 70.0903 421.547 71.6211 420.453 73.6329C419.36 75.6447 418.813 78.0063 418.813 80.7179C418.813 83.4732 419.36 85.8786 420.453 87.9342C421.547 89.946 423.012 91.4986 424.849 92.5919C426.685 93.6416 428.719 94.1664 430.95 94.1664C433.18 94.1664 435.214 93.6416 437.051 92.5919C438.931 91.4986 440.418 89.946 441.512 87.9342C442.605 85.8786 443.152 83.4951 443.152 80.7835Z" fill="#F8F8F8"/>
<path d="M471.805 68.7127C472.855 66.6572 474.342 65.0608 476.266 63.9237C478.234 62.7866 480.618 62.2181 483.417 62.2181V68.3847H481.843C475.151 68.3847 471.805 72.0147 471.805 79.2747V98.8241H465.836V62.8741H471.805V68.7127Z" fill="#F8F8F8"/>
<path d="M494.638 80.7179C494.638 77.0442 495.382 73.8297 496.869 71.0744C498.356 68.2753 500.389 66.1105 502.97 64.5797C505.594 63.049 508.502 62.2837 511.695 62.2837C514.844 62.2837 517.577 62.9616 519.895 64.3173C522.213 65.6731 523.94 67.3788 525.078 69.4343V62.8741H531.113V98.8241H525.078V92.1327C523.897 94.232 522.125 95.9814 519.764 97.3809C517.446 98.7367 514.734 99.4146 511.629 99.4146C508.436 99.4146 505.55 98.6273 502.97 97.0529C500.389 95.4784 498.356 93.2698 496.869 90.4271C495.382 87.5843 494.638 84.3479 494.638 80.7179ZM525.078 80.7835C525.078 78.072 524.531 75.7103 523.437 73.6985C522.344 71.6867 520.857 70.1559 518.977 69.1063C517.14 68.0129 515.106 67.4662 512.876 67.4662C510.645 67.4662 508.611 67.9911 506.775 69.0407C504.938 70.0903 503.473 71.6211 502.379 73.6329C501.286 75.6447 500.739 78.0063 500.739 80.7179C500.739 83.4732 501.286 85.8786 502.379 87.9342C503.473 89.946 504.938 91.4986 506.775 92.5919C508.611 93.6416 510.645 94.1664 512.876 94.1664C515.106 94.1664 517.14 93.6416 518.977 92.5919C520.857 91.4986 522.344 89.946 523.437 87.9342C524.531 85.8786 525.078 83.4951 525.078 80.7835Z" fill="#F8F8F8"/>
<path d="M553.731 69.4999C554.912 67.4444 556.662 65.7387 558.98 64.3829C561.341 62.9834 564.075 62.2837 567.18 62.2837C570.373 62.2837 573.259 63.049 575.839 64.5797C578.464 66.1105 580.519 68.2753 582.006 71.0744C583.493 73.8297 584.236 77.0442 584.236 80.7179C584.236 84.3479 583.493 87.5843 582.006 90.4271C580.519 93.2698 578.464 95.4784 575.839 97.0529C573.259 98.6273 570.373 99.4146 567.18 99.4146C564.118 99.4146 561.407 98.7367 559.045 97.3809C556.727 95.9814 554.956 94.2539 553.731 92.1983V115.881H547.762V62.8741H553.731V69.4999ZM578.135 80.7179C578.135 78.0063 577.589 75.6447 576.495 73.6329C575.402 71.6211 573.915 70.0903 572.034 69.0407C570.198 67.9911 568.164 67.4662 565.933 67.4662C563.747 67.4662 561.713 68.0129 559.832 69.1063C557.996 70.1559 556.509 71.7085 555.371 73.7641C554.278 75.7759 553.731 78.1157 553.731 80.7835C553.731 83.4951 554.278 85.8786 555.371 87.9342C556.509 89.946 557.996 91.4986 559.832 92.5919C561.713 93.6416 563.747 94.1664 565.933 94.1664C568.164 94.1664 570.198 93.6416 572.034 92.5919C573.915 91.4986 575.402 89.946 576.495 87.9342C577.589 85.8786 578.135 83.4732 578.135 80.7179Z" fill="#F8F8F8"/>
<path d="M616.498 62.2181C619.21 62.2181 621.659 62.8085 623.846 63.9893C626.033 65.1264 627.738 66.854 628.963 69.1719C630.231 71.4899 630.865 74.3108 630.865 77.6346V98.8241H624.961V78.4874C624.961 74.9012 624.065 72.1677 622.271 70.2871C620.478 68.3628 618.029 67.4006 614.924 67.4006C611.775 67.4006 609.26 68.3847 607.38 70.3527C605.543 72.3208 604.624 75.1855 604.624 78.9467V98.8241H598.655V50.2784H604.624V67.9911C605.805 66.1542 607.423 64.7328 609.479 63.7269C611.578 62.721 613.918 62.2181 616.498 62.2181Z" fill="#F8F8F8"/>
<path d="M679.978 79.4715C679.978 80.6086 679.913 81.8113 679.782 83.0796H651.048C651.266 86.6221 652.469 89.3993 654.656 91.4111C656.886 93.3792 659.576 94.3632 662.725 94.3632C665.305 94.3632 667.448 93.7728 669.154 92.5919C670.903 91.3674 672.128 89.7492 672.828 87.7374H679.257C678.295 91.1924 676.37 94.0133 673.484 96.2001C670.597 98.3431 667.011 99.4146 662.725 99.4146C659.314 99.4146 656.252 98.6492 653.541 97.1185C650.873 95.5878 648.774 93.4229 647.243 90.6239C645.712 87.7811 644.947 84.501 644.947 80.7835C644.947 77.0661 645.69 73.8078 647.177 71.0088C648.664 68.2097 650.742 66.0667 653.409 64.5797C656.121 63.049 659.226 62.2837 662.725 62.2837C666.136 62.2837 669.154 63.0272 671.778 64.5141C674.402 66.0011 676.414 68.0567 677.814 70.6808C679.257 73.2611 679.978 76.1914 679.978 79.4715ZM673.812 78.225C673.812 75.9508 673.309 74.0046 672.303 72.3864C671.297 70.7245 669.919 69.478 668.17 68.6471C666.464 67.7724 664.562 67.335 662.463 67.335C659.445 67.335 656.865 68.2972 654.722 70.2215C652.622 72.1459 651.42 74.8137 651.113 78.225H673.812Z" fill="#F8F8F8"/>
<path d="M700.388 68.7127C701.438 66.6572 702.925 65.0608 704.849 63.9237C706.817 62.7866 709.201 62.2181 712 62.2181V68.3847H710.426C703.734 68.3847 700.388 72.0147 700.388 79.2747V98.8241H694.419V62.8741H700.388V68.7127Z" fill="#F8F8F8"/>
<path d="M556.359 3.64814V12.7069H566.234V15.6228H556.359V24.9536H567.401V27.8695H552.821V0.732239H567.401V3.64814H556.359Z" fill="#D7FE62"/>
<path d="M587.761 27.8695L582.707 19.9383L577.847 27.8695H574.154L581.035 17.2945L574.154 6.56404H578.158L583.212 14.4564L588.033 6.56404H591.727L584.884 17.1002L591.766 27.8695H587.761Z" fill="#D7FE62"/>
<path d="M602.672 10.4908C603.372 9.27258 604.408 8.26174 605.782 7.45825C607.182 6.62883 608.802 6.21413 610.642 6.21413C612.534 6.21413 614.245 6.66771 615.774 7.57488C617.329 8.48205 618.547 9.76505 619.428 11.4239C620.31 13.0568 620.75 14.9618 620.75 17.139C620.75 19.2903 620.31 21.2083 619.428 22.8931C618.547 24.5778 617.329 25.8867 615.774 26.8198C614.245 27.7529 612.534 28.2195 610.642 28.2195C608.827 28.2195 607.22 27.8177 605.821 27.0142C604.447 26.1848 603.397 25.161 602.672 23.9428V37.978H599.134V6.56404H602.672V10.4908ZM617.135 17.139C617.135 15.532 616.811 14.1324 616.163 12.9401C615.515 11.7479 614.633 10.8407 613.519 10.2186C612.43 9.59657 611.225 9.28554 609.903 9.28554C608.607 9.28554 607.402 9.60953 606.287 10.2575C605.199 10.8796 604.318 11.7997 603.644 13.0179C602.996 14.2102 602.672 15.5968 602.672 17.1779C602.672 18.7849 602.996 20.1975 603.644 21.4157C604.318 22.608 605.199 23.5281 606.287 24.1761C607.402 24.7981 608.607 25.1092 609.903 25.1092C611.225 25.1092 612.43 24.7981 613.519 24.1761C614.633 23.5281 615.515 22.608 616.163 21.4157C616.811 20.1975 617.135 18.7719 617.135 17.139Z" fill="#D7FE62"/>
<path d="M648.734 16.4003C648.734 17.0742 648.696 17.787 648.618 18.5387H631.589C631.719 20.6381 632.431 22.284 633.727 23.4763C635.049 24.6426 636.643 25.2258 638.509 25.2258C640.039 25.2258 641.309 24.8759 642.319 24.1761C643.356 23.4503 644.082 22.4913 644.497 21.2991H648.307C647.737 23.3467 646.596 25.0184 644.885 26.3144C643.175 27.5844 641.049 28.2195 638.509 28.2195C636.488 28.2195 634.673 27.7659 633.066 26.8587C631.485 25.9515 630.241 24.6685 629.334 23.0097C628.427 21.325 627.973 19.381 627.973 17.1779C627.973 14.9748 628.414 13.0438 629.295 11.385C630.176 9.72617 631.407 8.45613 632.989 7.57488C634.596 6.66771 636.436 6.21413 638.509 6.21413C640.531 6.21413 642.319 6.65475 643.875 7.53601C645.43 8.41725 646.622 9.63545 647.451 11.1906C648.307 12.7198 648.734 14.4564 648.734 16.4003ZM645.08 15.6616C645.08 14.3139 644.782 13.1605 644.186 12.2014C643.589 11.2165 642.773 10.4778 641.736 9.98536C640.725 9.46698 639.598 9.20779 638.354 9.20779C636.565 9.20779 635.036 9.77801 633.766 10.9184C632.522 12.0589 631.809 13.64 631.628 15.6616H645.08Z" fill="#D7FE62"/>
<path d="M660.83 10.0242C661.452 8.80604 662.334 7.85999 663.474 7.1861C664.64 6.5122 666.053 6.17525 667.712 6.17525V9.82985H666.779C662.813 9.82985 660.83 11.9811 660.83 16.2837V27.8695H657.292V6.56404H660.83V10.0242Z" fill="#D7FE62"/>
<path d="M679.999 9.47994V22.0377C679.999 23.0745 680.22 23.8132 680.66 24.2538C681.101 24.6685 681.865 24.8759 682.954 24.8759H685.559V27.8695H682.371C680.401 27.8695 678.924 27.416 677.939 26.5088C676.954 25.6016 676.461 24.1113 676.461 22.0377V9.47994H673.701V6.56404H676.461V1.19878H679.999V6.56404H685.559V9.47994H679.999Z" fill="#D7FE62"/>
<path d="M710.202 18.1499C710.202 20.8339 708.026 23.0097 705.342 23.0097C702.658 23.0097 700.482 20.8339 700.482 18.1499C700.482 15.4659 702.658 13.29 705.342 13.29C708.026 13.29 710.202 15.4659 710.202 18.1499Z" fill="#D7FE62"/>
</svg>
