<svg width="343" height="279" viewBox="0 0 343 279" fill="none" xmlns="http://www.w3.org/2000/svg">
<path d="M226.589 162.622C226.589 193.095 201.8 217.884 171.327 217.884C140.855 217.884 116.075 193.095 116.075 162.622C116.075 132.149 140.855 107.36 171.327 107.36C201.8 107.36 226.589 132.159 226.589 162.622ZM342.655 84.1528V241.11C342.655 251.159 338.663 260.797 331.557 267.902C324.451 275.008 314.814 279 304.765 279H37.8896C27.8406 279 18.2033 275.008 11.0976 267.902C3.99193 260.797 0 251.159 0 241.11V84.1528C0 74.1038 3.99193 64.4665 11.0976 57.3608C18.2033 50.2551 27.8406 46.2632 37.8896 46.2632H84.4938V33.1534C84.4938 24.3606 87.9867 15.9279 94.2042 9.7104C100.422 3.49294 108.854 0 117.647 0H225.007C233.8 0 242.233 3.49294 248.45 9.7104C254.668 15.9279 258.161 24.3606 258.161 33.1534V46.2537H304.765C325.689 46.2632 342.655 63.2283 342.655 84.1528ZM255.006 162.622C255.006 116.482 217.467 78.943 171.327 78.943C125.197 78.943 87.6576 116.482 87.6576 162.622C87.6576 208.762 125.197 246.301 171.327 246.301C217.467 246.301 255.006 208.762 255.006 162.622Z" fill="#D7FE62"/>
</svg>
