<svg width="232" height="279" viewBox="0 0 232 279" fill="none" xmlns="http://www.w3.org/2000/svg">
<path d="M134.686 185.333C133.644 184.192 132.326 183.338 130.964 182.627C127.998 181.081 124.754 180.143 121.533 179.296V204.253C126.761 203.662 132.762 201.765 135.507 196.885C136.818 194.553 137.078 191.689 136.544 189.094C136.255 187.688 135.657 186.397 134.686 185.333Z" fill="#D7FE62"/>
<path d="M135.48 196.932L135.507 196.884C135.498 196.9 135.489 196.916 135.48 196.932ZM97.012 145.436C96.1133 146.748 95.5493 148.239 95.3938 149.824C95.2382 151.412 95.3255 153.179 95.9288 154.673C96.5032 156.098 97.7066 157.15 98.9487 157.997C100.342 158.945 101.875 159.685 103.437 160.313C104.746 160.84 106.219 161.344 107.808 161.831V139.248C103.796 140.104 99.4122 141.931 97.012 145.436ZM135.611 196.7C135.578 196.758 135.543 196.819 135.508 196.884C135.549 196.809 135.581 196.754 135.611 196.7ZM135.742 196.466C135.751 196.45 135.752 196.449 135.742 196.466V196.466Z" fill="#D7FE62"/>
<path d="M130.325 60.7058C151.549 42.8766 165.731 2.70991 157.003 0.953119C145.407 -1.38205 120.225 8.85738 108.053 10.6614C90.79 12.7458 71.9878 -8.05866 61.4339 3.53776C52.8528 12.9664 67.5859 47.2554 90.6363 62.1934C21.8666 95.9927 -74.7939 265.668 93.8355 277.979C327.163 295.015 210.328 93.6424 130.325 60.7058ZM150.363 194.52C149.646 201.135 146.14 207.117 140.9 211.178C135.367 215.466 128.427 217.46 121.532 218.019V225.328C121.532 227.284 120.678 229.175 119.214 230.47C117.202 232.25 114.245 232.689 111.803 231.564C109.391 230.454 107.807 227.981 107.807 225.328V217.34C106.625 217.117 105.452 216.846 104.291 216.529C97.8467 214.759 91.8692 211.308 87.5029 206.201C85.3279 203.656 83.5547 200.768 82.3283 197.65C82.008 196.835 81.7223 196.007 81.4722 195.167C81.2458 194.407 81.012 193.635 80.9313 192.844C80.7974 191.51 81.0568 190.166 81.6777 188.977C82.95 186.544 85.6312 185.074 88.3688 185.318C91.063 185.557 93.4245 187.427 94.2727 189.995C94.534 190.786 94.7112 191.597 95.0047 192.379C95.2946 193.158 95.6474 193.911 96.0597 194.632C96.8784 196.052 97.8928 197.351 99.073 198.489C101.498 200.825 104.587 202.344 107.807 203.247V176.093C101.511 174.463 95.0113 172.357 89.8118 168.315C87.2849 166.349 85.1408 163.907 83.7365 161.016C82.2548 157.966 81.641 154.567 81.616 151.191C81.5904 147.764 82.2417 144.366 83.6715 141.243C85.0108 138.319 86.9389 135.694 89.303 133.518C94.358 128.865 101.073 126.27 107.808 125.317V117.729C107.808 115.774 108.662 113.882 110.126 112.588C112.139 110.808 115.094 110.368 117.537 111.493C119.948 112.603 121.533 115.076 121.533 117.729V125.275C122.43 125.388 123.325 125.523 124.215 125.685C130.829 126.882 137.297 129.613 142.134 134.381C144.433 136.648 146.292 139.321 147.619 142.265C147.987 143.084 148.311 143.922 148.589 144.775C148.849 145.572 149.11 146.392 149.234 147.223C149.431 148.554 149.232 149.914 148.662 151.134C147.499 153.621 144.89 155.204 142.145 155.087C139.448 154.969 137.005 153.213 136.039 150.692C135.752 149.943 135.608 149.149 135.314 148.401C135.014 147.645 134.639 146.921 134.193 146.24C133.334 144.914 132.222 143.777 130.951 142.84C128.201 140.809 124.864 139.75 121.531 139.159V165.145C125.493 166.093 129.458 167.128 133.254 168.625C138.991 170.887 144.427 174.356 147.559 179.826C147.073 178.974 146.6 178.143 147.575 179.854C148.532 181.535 148.076 180.734 147.595 179.891C150.086 184.282 150.905 189.532 150.363 194.52Z" fill="#D7FE62"/>
<path d="M135.409 197.061L135.304 197.25C135.328 197.207 135.365 197.143 135.409 197.061Z" fill="#D7FE62"/>
</svg>
