<svg width="203" height="23" viewBox="0 0 203 23" fill="none" xmlns="http://www.w3.org/2000/svg">
<path d="M92.2504 2.37695V19.4824H90.5439V2.37695H92.2504ZM107.44 9.23843H105.54C105.486 8.92693 105.386 8.65098 105.241 8.41058C105.095 8.1668 104.914 7.96025 104.697 7.79097C104.481 7.62167 104.233 7.4947 103.956 7.41005C103.681 7.32202 103.385 7.27801 103.067 7.27801C102.502 7.27801 102.001 7.42021 101.564 7.70463C101.127 7.98566 100.785 8.39873 100.538 8.94386C100.291 9.4856 100.167 10.1475 100.167 10.9297C100.167 11.7254 100.291 12.3958 100.538 12.9409C100.788 13.4826 101.13 13.8923 101.564 14.1699C102.001 14.4442 102.5 14.5813 103.062 14.5813C103.373 14.5813 103.665 14.5408 103.936 14.4595C104.21 14.3747 104.455 14.2512 104.672 14.0887C104.892 13.9262 105.077 13.7264 105.225 13.4894C105.378 13.2524 105.483 12.9815 105.54 12.6768L107.44 12.6869C107.369 13.1813 107.215 13.6451 106.978 14.0785C106.744 14.5119 106.438 14.8945 106.058 15.2264C105.679 15.5548 105.236 15.8121 104.728 15.9983C104.22 16.1812 103.656 16.2726 103.037 16.2726C102.122 16.2726 101.306 16.061 100.589 15.6377C99.8708 15.2145 99.3053 14.6033 98.8923 13.8043C98.4792 13.0052 98.2726 12.047 98.2726 10.9297C98.2726 9.80894 98.4808 8.85074 98.8973 8.05506C99.3137 7.256 99.8809 6.64485 100.599 6.22162C101.317 5.79838 102.129 5.58677 103.037 5.58677C103.615 5.58677 104.154 5.66803 104.652 5.83054C105.149 5.99307 105.593 6.23177 105.982 6.54666C106.372 6.85817 106.692 7.24077 106.942 7.69448C107.196 8.1448 107.362 8.65944 107.44 9.23843ZM112.487 16.2828C111.725 16.2828 111.065 16.1152 110.506 15.78C109.948 15.4447 109.514 14.9758 109.206 14.373C108.901 13.7704 108.749 13.0662 108.749 12.2603C108.749 11.4545 108.901 10.7485 109.206 10.1425C109.514 9.53638 109.948 9.06574 110.506 8.73054C111.065 8.39535 111.725 8.22775 112.487 8.22775C113.249 8.22775 113.909 8.39535 114.468 8.73054C115.026 9.06574 115.458 9.53638 115.763 10.1425C116.071 10.7485 116.225 11.4545 116.225 12.2603C116.225 13.0662 116.071 13.7704 115.763 14.373C115.458 14.9758 115.026 15.4447 114.468 15.78C113.909 16.1152 113.249 16.2828 112.487 16.2828ZM112.497 14.8099C112.91 14.8099 113.256 14.6965 113.533 14.4696C113.811 14.2394 114.017 13.9312 114.153 13.5453C114.292 13.1593 114.361 12.7293 114.361 12.2552C114.361 11.7778 114.292 11.3461 114.153 10.9601C114.017 10.5708 113.811 10.261 113.533 10.0307C113.256 9.80049 112.91 9.68536 112.497 9.68536C112.074 9.68536 111.722 9.80049 111.441 10.0307C111.163 10.261 110.955 10.5708 110.816 10.9601C110.681 11.3461 110.613 11.7778 110.613 12.2552C110.613 12.7293 110.681 13.1593 110.816 13.5453C110.955 13.9312 111.163 14.2394 111.441 14.4696C111.722 14.6965 112.074 14.8099 112.497 14.8099ZM117.785 16.1303V8.32933H119.543V9.65489H119.634C119.797 9.20795 120.066 8.85921 120.442 8.60866C120.817 8.35471 121.266 8.22775 121.788 8.22775C122.316 8.22775 122.761 8.35641 123.123 8.61373C123.489 8.86767 123.746 9.21472 123.895 9.65489H123.977C124.149 9.2215 124.44 8.87614 124.85 8.61882C125.263 8.3581 125.752 8.22775 126.318 8.22775C127.036 8.22775 127.621 8.45459 128.075 8.9083C128.529 9.36201 128.756 10.0239 128.756 10.8941V16.1303H126.912V11.1785C126.912 10.6944 126.783 10.3405 126.526 10.1171C126.269 9.89021 125.954 9.77678 125.581 9.77678C125.138 9.77678 124.791 9.91561 124.54 10.1932C124.293 10.4675 124.17 10.8247 124.17 11.2649V16.1303H122.367V11.1023C122.367 10.6994 122.245 10.3778 122.001 10.1374C121.761 9.89698 121.445 9.77678 121.056 9.77678C120.792 9.77678 120.552 9.8445 120.335 9.97993C120.118 10.112 119.946 10.2999 119.817 10.5437C119.688 10.7841 119.624 11.0651 119.624 11.3868V16.1303H117.785ZM130.621 19.0558V8.32933H132.429V9.61934H132.535C132.63 9.42973 132.764 9.22827 132.937 9.01497C133.109 8.79826 133.343 8.61373 133.638 8.46137C133.932 8.30562 134.308 8.22775 134.765 8.22775C135.368 8.22775 135.911 8.3818 136.395 8.68991C136.883 8.99465 137.269 9.44666 137.553 10.046C137.841 10.6419 137.985 11.3732 137.985 12.24C137.985 13.0966 137.845 13.8246 137.564 14.4239C137.283 15.0232 136.9 15.4803 136.416 15.7951C135.932 16.11 135.383 16.2675 134.77 16.2675C134.323 16.2675 133.952 16.193 133.658 16.044C133.363 15.895 133.126 15.7156 132.947 15.5057C132.771 15.2924 132.634 15.0909 132.535 14.9014H132.459V19.0558H130.621ZM132.424 12.2298C132.424 12.7343 132.495 13.1762 132.637 13.5554C132.783 13.9346 132.991 14.2309 133.262 14.4442C133.536 14.6542 133.868 14.7591 134.257 14.7591C134.664 14.7591 135.004 14.6508 135.278 14.434C135.552 14.214 135.759 13.9143 135.898 13.5351C136.04 13.1525 136.111 12.7174 136.111 12.2298C136.111 11.7457 136.042 11.3157 135.903 10.9398C135.764 10.564 135.557 10.2694 135.283 10.0561C135.009 9.8428 134.667 9.73615 134.257 9.73615C133.864 9.73615 133.531 9.83942 133.257 10.046C132.983 10.2525 132.774 10.542 132.632 10.9144C132.493 11.2869 132.424 11.7254 132.424 12.2298ZM139.559 16.1303V8.32933H141.342V9.6295H141.423C141.566 9.17918 141.81 8.83212 142.155 8.58835C142.504 8.34117 142.902 8.21759 143.348 8.21759C143.451 8.21759 143.563 8.22266 143.689 8.23282C143.818 8.23959 143.923 8.25145 144.009 8.26838V9.95961C143.931 9.93252 143.808 9.90884 143.638 9.88852C143.472 9.86482 143.311 9.85296 143.155 9.85296C142.82 9.85296 142.519 9.92577 142.251 10.0713C141.987 10.2136 141.779 10.4116 141.627 10.6656C141.474 10.9195 141.398 11.2124 141.398 11.5442V16.1303H139.559ZM147.335 16.2878C146.841 16.2878 146.395 16.1998 145.999 16.0237C145.606 15.8443 145.295 15.5801 145.065 15.2314C144.838 14.8826 144.725 14.4526 144.725 13.9414C144.725 13.5012 144.806 13.1373 144.968 12.8495C145.131 12.5617 145.352 12.3314 145.634 12.1587C145.915 11.9861 146.231 11.8557 146.584 11.7677C146.939 11.6763 147.307 11.6102 147.685 11.5696C148.142 11.5222 148.514 11.4799 148.798 11.4426C149.082 11.402 149.29 11.3411 149.418 11.2598C149.55 11.1752 149.615 11.0448 149.615 10.8687V10.8383C149.615 10.4557 149.502 10.1594 149.275 9.94946C149.048 9.73954 148.722 9.63457 148.295 9.63457C147.845 9.63457 147.488 9.73277 147.224 9.92915C146.962 10.1255 146.786 10.3575 146.695 10.6249L144.979 10.3812C145.113 9.90714 145.338 9.51099 145.649 9.19272C145.961 8.87106 146.341 8.63066 146.792 8.47152C147.242 8.30901 147.739 8.22775 148.285 8.22775C148.661 8.22775 149.035 8.27176 149.407 8.3598C149.78 8.44782 150.12 8.59342 150.428 8.79658C150.737 8.99634 150.984 9.2689 151.17 9.61426C151.36 9.95961 151.454 10.3913 151.454 10.9094V16.1303H149.687V15.0588H149.625C149.514 15.2754 149.357 15.4786 149.154 15.6681C148.954 15.8544 148.701 16.0052 148.397 16.1202C148.095 16.2319 147.741 16.2878 147.335 16.2878ZM147.812 14.9368C148.182 14.9368 148.502 14.8641 148.772 14.7185C149.044 14.5695 149.251 14.373 149.397 14.1293C149.547 13.8855 149.621 13.6197 149.621 13.332V12.4127C149.562 12.4601 149.465 12.5041 149.327 12.5447C149.191 12.5854 149.038 12.6209 148.87 12.6514C148.699 12.6819 148.532 12.7089 148.367 12.7326C148.201 12.7563 148.057 12.7767 147.935 12.7936C147.661 12.8308 147.415 12.8918 147.198 12.9764C146.981 13.0611 146.811 13.1796 146.685 13.332C146.559 13.4809 146.498 13.6739 146.498 13.9109C146.498 14.2495 146.621 14.5052 146.868 14.6778C147.115 14.8505 147.429 14.9368 147.812 14.9368ZM163.016 10.3913L161.341 10.5742C161.292 10.4049 161.209 10.2457 161.09 10.0968C160.976 9.94777 160.82 9.82757 160.623 9.73615C160.428 9.64473 160.188 9.59903 159.903 9.59903C159.52 9.59903 159.199 9.68198 158.937 9.84789C158.68 10.0138 158.553 10.2288 158.557 10.4929C158.553 10.7197 158.636 10.9043 158.806 11.0465C158.979 11.1887 159.263 11.3055 159.659 11.3969L160.989 11.6813C161.728 11.8405 162.276 12.0927 162.635 12.4381C162.998 12.7834 163.181 13.2354 163.184 13.7941C163.181 14.2851 163.036 14.7185 162.752 15.0942C162.471 15.4667 162.079 15.7579 161.579 15.9679C161.078 16.1777 160.502 16.2828 159.852 16.2828C158.897 16.2828 158.129 16.083 157.546 15.6834C156.964 15.2805 156.617 14.7202 156.504 14.0023L158.297 13.8297C158.379 14.1818 158.552 14.4476 158.816 14.6271C159.08 14.8065 159.423 14.8962 159.848 14.8962C160.283 14.8962 160.635 14.8065 160.898 14.6271C161.166 14.4476 161.299 14.2258 161.299 13.9617C161.299 13.7383 161.213 13.5537 161.04 13.4081C160.87 13.2625 160.608 13.1508 160.248 13.0729L158.917 12.7936C158.169 12.6378 157.616 12.3754 157.257 12.0064C156.897 11.6339 156.72 11.1633 156.723 10.5945C156.72 10.1137 156.85 9.69722 157.114 9.34508C157.382 8.98956 157.753 8.71531 158.227 8.52231C158.705 8.32594 159.255 8.22775 159.878 8.22775C160.792 8.22775 161.511 8.42243 162.036 8.81181C162.563 9.20118 162.891 9.72768 163.016 10.3913ZM168.154 16.2828C167.371 16.2828 166.695 16.1202 166.127 15.7951C165.561 15.4667 165.127 15.0029 164.822 14.4036C164.516 13.8009 164.365 13.0915 164.365 12.2756C164.365 11.4731 164.516 10.7688 164.822 10.1628C165.129 9.55331 165.559 9.07929 166.111 8.7407C166.664 8.39873 167.312 8.22775 168.057 8.22775C168.538 8.22775 168.991 8.30562 169.418 8.46137C169.848 8.61373 170.227 8.85074 170.556 9.17241C170.887 9.49406 171.148 9.90375 171.337 10.4015C171.527 10.8958 171.623 11.4849 171.623 12.1689V12.7326H165.228V11.4934H169.86C169.857 11.1413 169.78 10.8281 169.631 10.5538C169.483 10.2762 169.274 10.0578 169.007 9.89868C168.743 9.73954 168.434 9.65997 168.082 9.65997C167.707 9.65997 167.377 9.75138 167.092 9.93423C166.807 10.1137 166.585 10.3507 166.427 10.6453C166.271 10.9364 166.191 11.2564 166.188 11.6052V12.6869C166.188 13.1407 166.271 13.53 166.437 13.8551C166.602 14.1767 166.834 14.4239 167.132 14.5966C167.431 14.7659 167.78 14.8505 168.178 14.8505C168.447 14.8505 168.688 14.8132 168.905 14.7388C169.121 14.6609 169.31 14.5475 169.468 14.3985C169.628 14.2495 169.748 14.065 169.83 13.8449L171.546 14.0379C171.437 14.4916 171.231 14.8878 170.927 15.2264C170.626 15.5616 170.238 15.8223 169.768 16.0085C169.298 16.1913 168.76 16.2828 168.154 16.2828ZM176.57 19.2183C175.91 19.2183 175.343 19.1286 174.869 18.9491C174.394 18.7731 174.014 18.5361 173.726 18.2381C173.439 17.9402 173.239 17.61 173.127 17.2477L174.783 16.8465C174.857 16.9988 174.966 17.1495 175.107 17.2986C175.25 17.4509 175.44 17.5761 175.682 17.6743C175.925 17.7759 176.232 17.8267 176.6 17.8267C177.122 17.8267 177.553 17.6997 177.896 17.4459C178.238 17.1953 178.409 16.7821 178.409 16.2066V14.7286H178.318C178.222 14.9182 178.083 15.113 177.9 15.3127C177.722 15.5124 177.483 15.68 177.185 15.8154C176.89 15.9509 176.519 16.0186 176.072 16.0186C175.473 16.0186 174.93 15.8782 174.442 15.5971C173.957 15.3127 173.571 14.8895 173.284 14.3275C173 13.762 172.857 13.0543 172.857 12.2044C172.857 11.3478 173 10.6249 173.284 10.0358C173.571 9.44327 173.96 8.99465 174.447 8.68991C174.934 8.3818 175.479 8.22775 176.077 8.22775C176.535 8.22775 176.91 8.30562 177.205 8.46137C177.503 8.61373 177.74 8.79826 177.916 9.01497C178.092 9.22827 178.226 9.42973 178.318 9.61934H178.419V8.32933H180.232V16.2573C180.232 16.9244 180.073 17.4763 179.755 17.913C179.436 18.3498 179 18.6765 178.449 18.8933C177.898 19.11 177.27 19.2183 176.57 19.2183ZM176.586 14.5762C176.975 14.5762 177.306 14.4815 177.58 14.2919C177.855 14.1022 178.063 13.8297 178.206 13.4741C178.348 13.1186 178.419 12.692 178.419 12.1943C178.419 11.7033 178.348 11.2733 178.206 10.9043C178.066 10.5352 177.86 10.2491 177.586 10.046C177.315 9.83942 176.982 9.73615 176.586 9.73615C176.176 9.73615 175.833 9.8428 175.559 10.0561C175.284 10.2694 175.079 10.5623 174.94 10.9347C174.802 11.3038 174.732 11.7237 174.732 12.1943C174.732 12.6717 174.802 13.0899 174.94 13.4488C175.082 13.8043 175.29 14.0819 175.564 14.2817C175.842 14.478 176.183 14.5762 176.586 14.5762ZM187.088 12.8495V8.32933H188.927V16.1303H187.144V14.7439H187.063C186.887 15.1807 186.597 15.5378 186.194 15.8154C185.795 16.0932 185.302 16.2319 184.717 16.2319C184.205 16.2319 183.754 16.1185 183.361 15.8917C182.971 15.6614 182.666 15.328 182.446 14.8911C182.226 14.451 182.116 13.9194 182.116 13.2964V8.32933H183.955V13.012C183.955 13.5063 184.089 13.8991 184.361 14.1903C184.632 14.4815 184.987 14.6271 185.428 14.6271C185.698 14.6271 185.961 14.561 186.215 14.429C186.468 14.2969 186.677 14.1005 186.84 13.8398C187.005 13.5757 187.088 13.2456 187.088 12.8495ZM190.817 16.1303V8.32933H192.6V9.6295H192.682C192.823 9.17918 193.067 8.83212 193.413 8.58835C193.762 8.34117 194.159 8.21759 194.606 8.21759C194.707 8.21759 194.822 8.22266 194.946 8.23282C195.075 8.23959 195.182 8.25145 195.266 8.26838V9.95961C195.189 9.93252 195.065 9.90884 194.896 9.88852C194.73 9.86482 194.569 9.85296 194.413 9.85296C194.077 9.85296 193.777 9.92577 193.509 10.0713C193.244 10.2136 193.037 10.4116 192.884 10.6656C192.732 10.9195 192.656 11.2124 192.656 11.5442V16.1303H190.817ZM198.593 16.2878C198.099 16.2878 197.653 16.1998 197.258 16.0237C196.865 15.8443 196.553 15.5801 196.323 15.2314C196.096 14.8826 195.983 14.4526 195.983 13.9414C195.983 13.5012 196.063 13.1373 196.226 12.8495C196.389 12.5617 196.61 12.3314 196.892 12.1587C197.173 11.9861 197.489 11.8557 197.842 11.7677C198.196 11.6763 198.565 11.6102 198.943 11.5696C199.401 11.5222 199.771 11.4799 200.056 11.4426C200.341 11.402 200.546 11.3411 200.675 11.2598C200.808 11.1752 200.874 11.0448 200.874 10.8687V10.8383C200.874 10.4557 200.759 10.1594 200.534 9.94946C200.306 9.73954 199.979 9.63457 199.554 9.63457C199.102 9.63457 198.745 9.73277 198.482 9.92915C198.221 10.1255 198.045 10.3575 197.953 10.6249L196.236 10.3812C196.372 9.90714 196.595 9.51099 196.908 9.19272C197.219 8.87106 197.599 8.63066 198.049 8.47152C198.501 8.30901 198.998 8.22775 199.544 8.22775C199.919 8.22775 200.292 8.27176 200.665 8.3598C201.038 8.44782 201.378 8.59342 201.687 8.79658C201.994 8.99634 202.241 9.2689 202.428 9.61426C202.617 9.95961 202.712 10.3913 202.712 10.9094V16.1303H200.945V15.0588H200.884C200.772 15.2754 200.615 15.4786 200.411 15.6681C200.212 15.8544 199.959 16.0052 199.655 16.1202C199.354 16.2319 198.999 16.2878 198.593 16.2878ZM199.071 14.9368C199.439 14.9368 199.759 14.8641 200.031 14.7185C200.301 14.5695 200.509 14.373 200.655 14.1293C200.804 13.8855 200.878 13.6197 200.878 13.332V12.4127C200.821 12.4601 200.722 12.5041 200.584 12.5447C200.448 12.5854 200.296 12.6209 200.126 12.6514C199.958 12.6819 199.791 12.7089 199.624 12.7326C199.458 12.7563 199.315 12.7767 199.192 12.7936C198.918 12.8308 198.672 12.8918 198.456 12.9764C198.239 13.0611 198.068 13.1796 197.943 13.332C197.818 13.4809 197.755 13.6739 197.755 13.9109C197.755 14.2495 197.879 14.5052 198.126 14.6778C198.373 14.8505 198.688 14.9368 199.071 14.9368Z" fill="white"/>
<path d="M6.27971 2.14488C5.66416 3.0477 5.06809 3.77919 4.629 4.59582C3.26656 7.12372 3.01931 9.77575 4.03498 12.4801C5.26098 15.7445 7.58675 17.8263 10.9969 18.6295C14.2707 19.4 17.1638 18.5629 19.6846 16.395C20.0323 16.0966 20.2293 16.1079 20.5216 16.4146C21.0612 16.9819 21.6163 17.5348 22.1816 18.0756C22.4586 18.3402 22.4442 18.5188 22.159 18.7803C19.3921 21.3186 16.1204 22.5085 12.3891 22.3023C9.15847 22.1239 6.3423 20.8671 4.01139 18.6142C2.15446 16.8198 0.950011 14.6407 0.348816 12.1272C-0.163122 9.99325 -0.101567 7.86444 0.467824 5.76129C1.01875 3.7279 2.0139 1.91712 3.44507 0.357713C3.87597 -0.112164 3.92315 -0.112164 4.37252 0.316675C5.02296 0.937363 5.67031 1.5601 6.27971 2.14488Z" fill="white"/>
<path d="M41.8742 5.83104C42.9657 5.83104 43.9352 5.81257 44.9017 5.85156C45.0422 5.85771 45.2382 6.12138 45.2956 6.30194C45.9707 8.43998 46.6231 10.5842 47.2859 12.7263C47.3178 12.8279 47.3843 12.9182 47.5013 13.1408C47.7435 12.3416 47.9477 11.6717 48.1487 11.0017C48.634 9.38999 49.1079 7.77415 49.6168 6.1696C49.6651 6.01878 49.9235 5.84336 50.0918 5.83617C50.8756 5.80128 51.6625 5.8331 52.4473 5.81565C52.8413 5.80744 52.9091 6.0629 52.9984 6.35324C53.6436 8.46665 54.2982 10.578 54.9517 12.6904C54.9917 12.8187 55.044 12.9428 55.1364 13.1921C55.5293 11.9076 55.8883 10.734 56.2463 9.56029C56.5736 8.48717 56.9101 7.41712 57.222 6.3399C57.3348 5.95005 57.54 5.79205 57.9556 5.81052C58.6542 5.8413 59.355 5.82283 60.0556 5.81873C60.3984 5.81668 60.5748 5.89259 60.423 6.29886C59.6156 8.46358 58.8225 10.6334 58.0305 12.8043C57.6467 13.8579 57.2651 14.9126 56.9061 15.9754C56.7604 16.4073 56.5798 16.6689 56.0453 16.6259C55.3323 16.5695 54.6121 16.6023 53.895 16.6166C53.5974 16.6228 53.4415 16.5356 53.344 16.2279C52.8229 14.5925 52.276 12.9653 51.7354 11.3362C51.5754 10.855 51.4061 10.378 51.2101 9.81061C50.734 11.2828 50.2889 12.6699 49.8384 14.0539C49.5962 14.7976 49.3655 15.5455 49.0865 16.275C49.0289 16.4248 48.7847 16.5889 48.6196 16.5961C47.8358 16.6299 47.0489 16.5911 46.2641 16.6208C45.9009 16.6341 45.7409 16.473 45.6301 16.1693C45.1827 14.9392 44.7273 13.7133 44.2768 12.4842C43.5526 10.5042 42.8303 8.52308 42.1091 6.54201C42.0413 6.35528 41.9851 6.16447 41.8742 5.83104Z" fill="white"/>
<path d="M29.9102 12.3509C29.3152 13.0711 28.4555 13.4907 28.6185 14.5812C28.6955 15.0983 28.6185 15.6359 28.636 16.1642C28.6463 16.4864 28.5447 16.625 28.2011 16.6177C27.4162 16.5993 26.6304 16.6013 25.8455 16.6177C25.5284 16.6238 25.4136 16.4864 25.4187 16.1961C25.4207 16.0935 25.4157 15.9919 25.4157 15.8893C25.4157 11.4419 25.4157 6.99349 25.4157 2.54608C25.4157 1.74176 25.4187 1.74073 26.2046 1.7397C26.8191 1.7397 27.4347 1.76022 28.0482 1.73355C28.4914 1.71406 28.6443 1.86897 28.6411 2.32038C28.6227 4.5528 28.633 6.78523 28.633 9.01765C28.633 9.20334 28.633 9.38904 28.633 9.70092C28.8381 9.51419 28.9726 9.4034 29.0936 9.27926C30.0775 8.26359 31.0439 7.23048 32.0534 6.23943C32.2688 6.02809 32.631 5.87933 32.9347 5.85983C33.7502 5.80854 34.572 5.84034 35.3918 5.84444C35.5569 5.84444 35.7211 5.87215 36.0074 5.89779C35.6975 6.25379 35.4698 6.53593 35.2205 6.79753C34.293 7.77217 33.3645 8.74577 32.4207 9.70399C32.1908 9.93791 32.156 10.098 32.3458 10.3955C33.5934 12.3437 34.8142 14.3084 36.0411 16.2689C36.0833 16.3367 36.0966 16.4218 36.1407 16.5511C35.9827 16.5747 35.8585 16.6095 35.7344 16.6105C34.7783 16.6147 33.8221 16.6024 32.867 16.6198C32.551 16.626 32.3797 16.507 32.2227 16.2381C31.488 14.9753 30.73 13.7256 29.9092 12.3529L29.9102 12.3509Z" fill="white"/>
<path d="M75.1214 17.2977C75.5246 17.467 75.8281 17.6189 76.1483 17.7234C77.0327 18.0137 78.1529 17.2874 78.1396 16.3713C78.1335 15.9712 77.8913 15.568 77.7262 15.1791C76.9002 13.2391 76.0632 11.3052 75.2311 9.36724C74.8289 8.43057 74.4278 7.49389 74.0339 6.55312C73.9517 6.35615 73.9036 6.14583 73.8 5.81548C74.2903 5.81548 74.6905 5.81548 75.0905 5.81548C75.62 5.81548 76.1525 5.7847 76.6766 5.83498C76.8634 5.85241 77.1281 6.02888 77.1947 6.19611C77.8697 7.9012 78.5089 9.62168 79.1636 11.335C79.3491 11.8213 79.5503 12.3014 79.8642 12.7867C80.0561 12.2511 80.2531 11.7166 80.4387 11.179C81.005 9.54063 81.5765 7.90324 82.1244 6.25868C82.2372 5.9191 82.4228 5.80727 82.7594 5.8124C83.6222 5.82472 84.484 5.8165 85.4812 5.8165C85.1755 6.62084 84.9272 7.29795 84.6624 7.9689C83.8406 10.0556 83.02 12.1434 82.1838 14.225C81.6073 15.6593 81.0604 17.109 80.3967 18.5032C79.7739 19.8133 78.6649 20.5109 77.1895 20.6001C76.0816 20.6668 75.0454 20.4842 74.1487 19.7927C74.0256 19.6973 73.8727 19.4409 73.9179 19.3577C74.3006 18.6488 74.7253 17.9625 75.1214 17.2977Z" fill="white"/>
<path d="M73.9453 4.62801C73.3625 4.51721 72.8548 4.35102 72.3429 4.33973C71.5764 4.32228 70.9825 5.44157 71.3825 6.09407C71.4421 6.1905 71.639 6.23975 71.7754 6.24488C72.3039 6.26334 72.8332 6.26334 73.3615 6.25207C73.7124 6.24488 73.8499 6.39056 73.8356 6.74143C73.816 7.21746 73.8191 7.69554 73.8334 8.17158C73.8427 8.48243 73.7043 8.59938 73.4067 8.59528C72.8948 8.58912 72.3817 8.61785 71.872 8.58912C71.4369 8.56451 71.3189 8.74302 71.3221 9.15441C71.3364 11.4032 71.3292 13.6521 71.3282 15.8999C71.3282 16.6098 71.3251 16.6108 70.6397 16.6108C69.974 16.6108 69.3081 16.5883 68.6433 16.6191C68.233 16.6385 68.1201 16.495 68.1231 16.0958C68.1395 13.8132 68.115 11.5305 68.1427 9.24778C68.1488 8.73891 68.0278 8.55732 67.4973 8.58297C66.7023 8.62298 66.7013 8.58912 66.7001 7.77043C66.7001 7.42983 66.7146 7.08819 66.6971 6.74861C66.6797 6.40286 66.8172 6.2654 67.168 6.24795C68.1231 6.20179 68.1231 6.18948 68.1314 5.25999C68.1498 3.26147 69.5605 1.81491 71.677 1.62921C72.7039 1.53893 73.6734 1.75438 74.6071 2.17604C74.9322 2.32275 75.0421 2.491 74.8451 2.8429C74.5136 3.43486 74.2305 4.05246 73.9433 4.62597L73.9453 4.62801Z" fill="white"/>
<path d="M64.8952 11.2622C64.8952 12.8647 64.8839 14.4681 64.9034 16.0707C64.9085 16.4996 64.7608 16.636 64.3402 16.6196C63.6067 16.5919 62.8711 16.598 62.1376 16.6176C61.7774 16.6267 61.6071 16.5261 61.6081 16.1332C61.6174 12.8595 61.6152 9.58578 61.6102 6.31204C61.6102 5.96425 61.7558 5.8155 62.0996 5.81754C62.8679 5.8237 63.6364 5.8278 64.4047 5.81651C64.7885 5.81138 64.9024 5.99093 64.8994 6.35103C64.8881 7.98739 64.8952 9.62477 64.8952 11.2622Z" fill="white"/>
<path d="M40.7396 11.205C40.7396 12.8239 40.7293 14.4418 40.7467 16.0607C40.7509 16.4742 40.6299 16.6384 40.1948 16.6209C39.4624 16.5901 38.7267 16.6004 37.9942 16.6178C37.6546 16.6261 37.5008 16.5285 37.5018 16.1602C37.5109 12.8721 37.5099 9.58402 37.5038 6.29592C37.5038 5.97479 37.6238 5.82091 37.9491 5.82194C38.7339 5.82501 39.5188 5.82808 40.3046 5.81988C40.6862 5.81578 40.7457 6.03635 40.7437 6.35028C40.7376 7.96921 40.7406 9.58709 40.7406 11.206L40.7396 11.205Z" fill="white"/>
<path d="M63.2703 4.63401C62.2751 4.63605 61.5036 3.85019 61.5097 2.84171C61.516 1.84757 62.2649 1.09147 63.2467 1.08839C64.2705 1.08531 65.0083 1.83731 64.9959 2.87351C64.9846 3.89123 64.2582 4.63298 63.2713 4.63503L63.2703 4.63401Z" fill="white"/>
<path d="M39.1158 1.08596C40.1069 1.08083 40.8774 1.83489 40.8815 2.81466C40.8855 3.84879 40.1427 4.62747 39.1477 4.63363C38.1361 4.63979 37.4015 3.88675 37.4005 2.84543C37.4005 1.82258 38.1136 1.09109 39.1158 1.08596Z" fill="white"/>
<path d="M7.76105 13.9164C7.76309 12.948 9.16759 11.5548 10.1289 11.5814C10.5475 11.5927 10.8019 11.7979 10.7896 12.2473C10.7701 12.9541 10.3433 13.4558 9.85907 13.8816C9.52359 14.176 9.10501 14.3966 8.69054 14.5741C8.19707 14.7854 7.76002 14.4469 7.76105 13.9164Z" fill="white"/>
<path d="M16.96 15.0731C16.878 15.2291 16.7958 15.6323 16.5917 15.7082C16.3239 15.8066 15.8817 15.7523 15.6529 15.5799C14.8681 14.986 14.4342 14.1549 14.4568 13.1587C14.4629 12.9012 14.6578 12.5206 14.8681 12.4293C15.0845 12.3349 15.4867 12.4426 15.7002 12.6037C16.4594 13.1751 16.8297 13.9856 16.96 15.0731Z" fill="white"/>
<path d="M13.3525 14.1596C13.2766 14.9834 13.1832 15.6718 12.6723 16.2135C12.2322 16.6792 11.6679 16.6024 11.473 15.998C11.1457 14.9814 11.2258 13.977 11.9029 13.107C12.3543 12.5273 12.9103 12.6402 13.1689 13.3389C13.2776 13.6353 13.3094 13.9595 13.3525 14.1596Z" fill="white"/>
<path d="M7.19084 11.1024C7.00104 11.0553 6.67583 11.0132 6.38036 10.8942C5.74325 10.6377 5.65502 10.0273 6.20389 9.62306C7.08106 8.97775 8.07827 8.91415 9.08266 9.20243C9.69205 9.37684 9.76181 10.0262 9.27553 10.4407C8.71229 10.9219 8.03108 11.0409 7.19084 11.1024Z" fill="white"/>
<path d="M7.65599 5.48449C8.43571 5.52451 9.22464 5.9554 9.81353 6.72176C10.2383 7.27475 9.96229 7.84413 9.26979 7.92313C8.42031 8.02059 7.06199 7.32911 6.64854 6.58736C6.28125 5.93077 6.61262 5.47835 7.65599 5.48449Z" fill="white"/>
</svg>
