<svg width="190" height="280" viewBox="0 0 190 280" fill="none" xmlns="http://www.w3.org/2000/svg">
<path d="M189.051 110.612C189.442 111.482 189.58 112.444 189.447 113.388C189.315 114.332 188.918 115.22 188.303 115.948L48.6168 277.528C48.1602 278.076 47.5883 278.517 46.9417 278.818C46.2952 279.12 45.59 279.275 44.8765 279.273C44.0679 279.267 43.2726 279.067 42.5578 278.689C41.843 278.31 41.2298 277.766 40.77 277.1C40.3102 276.435 40.0173 275.669 39.9162 274.867C39.815 274.064 39.9085 273.249 40.1887 272.491L78.7384 171.554H4.98039C4.11952 171.554 3.27321 171.331 2.52415 170.907C1.77509 170.483 1.14888 169.872 0.706704 169.133C0.264527 168.394 0.0214991 167.554 0.00136208 166.693C-0.0187749 165.832 0.184667 164.981 0.591814 164.223L87.0169 2.64324C87.4339 1.84119 88.0644 1.16994 88.8389 0.703535C89.6133 0.237132 90.5014 -0.00628981 91.4054 0.000123531H184.513C185.468 -0.00411547 186.404 0.266567 187.21 0.779864C188.015 1.29316 188.656 2.02739 189.056 2.89492C189.455 3.76246 189.597 4.72664 189.463 5.67241C189.33 6.61818 188.927 7.50559 188.303 8.22871L102.327 107.72H184.513C185.466 107.72 186.4 107.993 187.203 108.505C188.007 109.018 188.648 109.748 189.051 110.612Z" fill="#D7FE62"/>
</svg>
