<svg width="257" height="254" viewBox="0 0 257 254" fill="none" xmlns="http://www.w3.org/2000/svg">
<path fill-rule="evenodd" clip-rule="evenodd" d="M215.654 142.96L256.834 44.1946V0H88.7549V50.8064H196.979L156.83 142.96H215.654ZM198.8 183.383H139.219L108.59 253.684H169.488L198.8 183.383Z" fill="#D7FE62"/>
<path d="M12.0987 114.333C14.8535 114.333 17.2608 114.879 19.3207 115.971C21.3806 117.063 22.9689 118.602 24.0857 120.587C25.2274 122.548 25.7982 124.819 25.7982 127.4C25.7982 129.956 25.2274 132.227 24.0857 134.212C22.9689 136.198 21.3682 137.736 19.2835 138.828C17.2236 139.92 14.8287 140.466 12.0987 140.466H2.30811V114.333H12.0987ZM11.6892 134.957C14.0966 134.957 15.9703 134.299 17.3105 132.984C18.6506 131.668 19.3207 129.807 19.3207 127.4C19.3207 124.992 18.6506 123.119 17.3105 121.778C15.9703 120.438 14.0966 119.768 11.6892 119.768H8.67387V134.957H11.6892Z" fill="white"/>
<path d="M35.7214 114.333V140.466H29.3557V114.333H35.7214Z" fill="white"/>
<path d="M56.6027 135.85H46.8493L45.2858 140.466H38.6222L48.0778 114.333H55.4487L64.9043 140.466H58.1662L56.6027 135.85ZM54.9647 130.936L51.726 121.369L48.5245 130.936H54.9647Z" fill="white"/>
<path d="M77.2377 140.727C75.3267 140.727 73.6143 140.417 72.1004 139.796C70.5865 139.176 69.3704 138.257 68.4522 137.041C67.5587 135.825 67.0872 134.361 67.0375 132.649H73.8128C73.9121 133.617 74.2471 134.361 74.8179 134.882C75.3887 135.379 76.1333 135.627 77.0515 135.627C77.9946 135.627 78.7391 135.416 79.2851 134.994C79.8311 134.547 80.1041 133.939 80.1041 133.17C80.1041 132.525 79.8808 131.991 79.434 131.569C79.0121 131.147 78.4786 130.8 77.8333 130.527C77.2129 130.254 76.3194 129.943 75.153 129.596C73.4654 129.075 72.088 128.554 71.0208 128.032C69.9536 127.511 69.0354 126.742 68.266 125.724C67.4967 124.707 67.112 123.379 67.112 121.741C67.112 119.309 67.993 117.41 69.7551 116.045C71.5172 114.656 73.8128 113.961 76.642 113.961C79.5209 113.961 81.8414 114.656 83.6034 116.045C85.3655 117.41 86.3086 119.321 86.4327 121.778H79.5457C79.4961 120.935 79.1859 120.277 78.6151 119.805C78.0442 119.309 77.3121 119.061 76.4187 119.061C75.6493 119.061 75.0289 119.272 74.5574 119.694C74.0858 120.091 73.85 120.674 73.85 121.443C73.85 122.287 74.2471 122.945 75.0413 123.416C75.8355 123.888 77.0764 124.397 78.764 124.943C80.4516 125.513 81.8166 126.059 82.8589 126.581C83.9261 127.102 84.8443 127.859 85.6137 128.851C86.383 129.844 86.7677 131.122 86.7677 132.686C86.7677 134.175 86.383 135.527 85.6137 136.744C84.8692 137.96 83.7772 138.928 82.3377 139.647C80.8983 140.367 79.1983 140.727 77.2377 140.727Z" fill="white"/>
<path d="M108.365 114.333C111.12 114.333 113.527 114.879 115.587 115.971C117.647 117.063 119.235 118.602 120.352 120.587C121.493 122.548 122.064 124.819 122.064 127.4C122.064 129.956 121.493 132.227 120.352 134.212C119.235 136.198 117.634 137.736 115.549 138.828C113.49 139.92 111.095 140.466 108.365 140.466H98.5741V114.333H108.365ZM107.955 134.957C110.363 134.957 112.236 134.299 113.576 132.984C114.917 131.668 115.587 129.807 115.587 127.4C115.587 124.992 114.917 123.119 113.576 121.778C112.236 120.438 110.363 119.768 107.955 119.768H104.94V134.957H107.955Z" fill="white"/>
<path d="M131.987 119.433V124.719H140.512V129.633H131.987V135.366H141.629V140.466H125.622V114.333H141.629V119.433H131.987Z" fill="white"/>
<path d="M19.6558 158.627C19.1842 157.758 18.5017 157.1 17.6083 156.654C16.7397 156.182 15.7097 155.946 14.5185 155.946C12.4586 155.946 10.8082 156.629 9.5673 157.994C8.32641 159.334 7.70597 161.133 7.70597 163.392C7.70597 165.799 8.35122 167.685 9.64176 169.05C10.9571 170.39 12.7564 171.06 15.0396 171.06C16.6032 171.06 17.9185 170.663 18.9857 169.869C20.0777 169.075 20.8718 167.933 21.3682 166.444H13.29V161.754H27.1383V167.673C26.6668 169.261 25.8602 170.738 24.7186 172.103C23.6018 173.468 22.1748 174.572 20.4375 175.416C18.7003 176.26 16.7397 176.682 14.5557 176.682C11.9746 176.682 9.66658 176.123 7.63151 175.007C5.62127 173.865 4.04534 172.289 2.90372 170.279C1.78692 168.268 1.22852 165.973 1.22852 163.392C1.22852 160.811 1.78692 158.515 2.90372 156.505C4.04534 154.47 5.62127 152.894 7.63151 151.777C9.64176 150.635 11.9374 150.065 14.5185 150.065C17.6455 150.065 20.2762 150.822 22.4105 152.335C24.5697 153.849 25.9967 155.946 26.6916 158.627H19.6558Z" fill="white"/>
<path d="M46.9325 171.879H37.1791L35.6156 176.496H28.952L38.4076 150.362H45.7784L55.234 176.496H48.496L46.9325 171.879ZM45.2945 166.966L42.0558 157.398L38.8543 166.966H45.2945Z" fill="white"/>
<path d="M71.439 176.496L66.0039 166.631H64.4776V176.496H58.1118V150.362H68.7959C70.8558 150.362 72.6054 150.722 74.0449 151.442C75.5091 152.162 76.6011 153.154 77.3208 154.42C78.0406 155.661 78.4004 157.051 78.4004 158.59C78.4004 160.327 77.9041 161.878 76.9113 163.243C75.9435 164.608 74.504 165.576 72.593 166.147L78.6238 176.496H71.439ZM64.4776 162.126H68.4236C69.5901 162.126 70.4587 161.841 71.0295 161.27C71.6251 160.699 71.923 159.892 71.923 158.85C71.923 157.857 71.6251 157.076 71.0295 156.505C70.4587 155.934 69.5901 155.649 68.4236 155.649H64.4776V162.126Z" fill="white"/>
<path d="M98.6646 171.879H88.9112L87.3476 176.496H80.684L90.1396 150.362H97.5105L106.966 176.496H100.228L98.6646 171.879ZM97.0266 166.966L93.7879 157.398L90.5863 166.966H97.0266Z" fill="white"/>
<path d="M133.222 176.496H126.857L116.21 160.376V176.496H109.844V150.362H116.21L126.857 166.556V150.362H133.222V176.496Z" fill="white"/>
<path d="M156.636 150.362V155.462H149.712V176.496H143.346V155.462H136.422V150.362H156.636Z" fill="white"/>
<path d="M166.197 150.362V176.496H159.831V150.362H166.197Z" fill="white"/>
<path d="M187.078 171.879H177.325L175.761 176.496H169.098L178.553 150.362H185.924L195.38 176.496H188.642L187.078 171.879ZM185.44 166.966L182.201 157.398L179 166.966H185.44Z" fill="white"/>
<path d="M10.1221 186.255C10.2327 185.915 10.7141 185.915 10.8246 186.255L13.0439 193.085C13.0933 193.237 13.2351 193.341 13.3951 193.341H20.5767C20.9345 193.341 21.0833 193.798 20.7938 194.009L14.9838 198.23C14.8543 198.324 14.8002 198.491 14.8496 198.643L17.0689 205.473C17.1794 205.813 16.79 206.096 16.5005 205.886L10.6905 201.665C10.561 201.571 10.3858 201.571 10.2563 201.665L4.44626 205.886C4.15681 206.096 3.76736 205.813 3.87792 205.473L6.09716 198.643C6.14661 198.491 6.09244 198.324 5.963 198.23L0.15295 194.009C-0.136497 193.798 0.0122597 193.341 0.370035 193.341H7.55165C7.71165 193.341 7.85346 193.237 7.9029 193.085L10.1221 186.255Z" fill="#D7FE62"/>
<path d="M36.9781 186.255C37.0887 185.915 37.57 185.915 37.6806 186.255L39.8998 193.085C39.9493 193.237 40.0911 193.34 40.2511 193.34H47.4327C47.7905 193.34 47.9392 193.798 47.6498 194.009L41.8397 198.23C41.7103 198.324 41.6561 198.491 41.7056 198.643L43.9248 205.473C44.0354 205.813 43.6459 206.096 43.3565 205.886L37.5464 201.665C37.417 201.571 37.2417 201.571 37.1123 201.665L31.3022 205.886C31.0128 206.096 30.6233 205.813 30.7339 205.473L32.9531 198.643C33.0026 198.491 32.9484 198.324 32.819 198.23L27.0089 194.009C26.7195 193.798 26.8682 193.34 27.226 193.34H34.4076C34.5676 193.34 34.7094 193.237 34.7589 193.085L36.9781 186.255Z" fill="#D7FE62"/>
<path d="M64.0438 186.255C64.1543 185.915 64.6357 185.915 64.7463 186.255L66.9655 193.085C67.015 193.237 67.1568 193.34 67.3168 193.34H74.4984C74.8562 193.34 75.0049 193.798 74.7155 194.009L68.9054 198.23C68.776 198.324 68.7218 198.491 68.7712 198.643L70.9905 205.473C71.101 205.813 70.7116 206.096 70.4222 205.886L64.6121 201.665C64.4827 201.571 64.3074 201.571 64.1779 201.665L58.3679 205.886C58.0784 206.096 57.689 205.813 57.7996 205.473L60.0188 198.643C60.0682 198.491 60.0141 198.324 59.8846 198.23L54.0746 194.009C53.7851 193.798 53.9339 193.34 54.2917 193.34H61.4733C61.6333 193.34 61.7751 193.237 61.8245 193.085L64.0438 186.255Z" fill="#D7FE62"/>
<path d="M91.1097 186.255C91.2202 185.915 91.7016 185.915 91.8122 186.255L94.0314 193.085C94.0809 193.237 94.2227 193.34 94.3827 193.34H101.564C101.922 193.34 102.071 193.798 101.781 194.009L95.9713 198.23C95.8419 198.324 95.7877 198.491 95.8372 198.643L98.0564 205.473C98.167 205.813 97.7775 206.096 97.4881 205.886L91.678 201.665C91.5486 201.571 91.3733 201.571 91.2439 201.665L85.4338 205.886C85.1444 206.096 84.7549 205.813 84.8655 205.473L87.0847 198.643C87.1342 198.491 87.08 198.324 86.9505 198.23L81.1405 194.009C80.8511 193.798 80.9998 193.34 81.3576 193.34H88.5392C88.6992 193.34 88.841 193.237 88.8904 193.085L91.1097 186.255Z" fill="#D7FE62"/>
<path d="M118.175 186.255C118.286 185.915 118.767 185.915 118.878 186.255L121.097 193.085C121.147 193.237 121.288 193.34 121.448 193.34H128.63C128.988 193.34 129.137 193.798 128.847 194.009L123.037 198.23C122.908 198.324 122.853 198.491 122.903 198.643L125.122 205.473C125.233 205.813 124.843 206.096 124.554 205.886L118.744 201.665C118.614 201.571 118.439 201.571 118.31 201.665L112.499 205.886C112.21 206.096 111.821 205.813 111.931 205.473L114.15 198.643C114.2 198.491 114.146 198.324 114.016 198.23L108.206 194.009C107.917 193.798 108.065 193.34 108.423 193.34H115.605C115.765 193.34 115.907 193.237 115.956 193.085L118.175 186.255Z" fill="#D7FE62"/>
</svg>
