<svg width="16" height="17" viewBox="0 0 16 17" fill="none" xmlns="http://www.w3.org/2000/svg">
<path fill-rule="evenodd" clip-rule="evenodd" d="M13.6568 14.5431C12.2091 15.9908 10.2091 16.8862 8 16.8862C5.79088 16.8862 3.79088 15.9908 2.34314 14.5431C0.895432 13.0954 0 11.0954 0 8.88623C0 6.67711 0.895432 4.67711 2.34314 3.22937C3.79088 1.78166 5.79088 0.88623 8 0.88623C10.2091 0.88623 12.2091 1.78166 13.6568 3.22937C15.1046 4.67711 16 6.67711 16 8.88623C16 11.0954 15.1046 13.0954 13.6568 14.5431ZM12.5657 7.05192C12.8781 6.7395 12.8781 6.23296 12.5657 5.92055C12.2533 5.60813 11.7467 5.60813 11.4343 5.92055L7.2 10.1549L5.36569 8.32055C5.05327 8.00813 4.54673 8.00813 4.23431 8.32055C3.9219 8.63296 3.9219 9.1395 4.23431 9.45192L6.63432 11.8519C6.94673 12.1643 7.45327 12.1643 7.76569 11.8519L12.5657 7.05192Z" fill="#D7FE62"/>
</svg>
